<svg width="105" height="87" viewBox="0 0 105 87" fill="none" xmlns="http://www.w3.org/2000/svg">
<path d="M97.2887 24.9235C97.6051 11.5124 86.9546 0.147277 73.5403 0.0014784C64.5592 -0.0962548 56.7029 4.73834 52.4996 11.961C48.2954 4.73834 40.4399 -0.0970559 31.4589 0.0014784C18.0446 0.147277 7.39405 11.5124 7.71049 24.9235C8.41865 54.8915 44.2611 80.9575 51.3051 85.7953C52.0253 86.2904 52.9738 86.2904 53.694 85.7953C60.738 80.9575 96.5805 54.8915 97.2887 24.9235Z" fill="#E92323"/>
<path d="M97.3006 24.027C97.3006 54.3668 60.8172 80.9022 53.6947 85.7937C52.9737 86.2888 52.0244 86.2912 51.3027 85.7961C49.5483 84.5912 46.0066 82.0694 41.6671 78.4989C48.8201 73.5834 85.2538 47.0633 85.2538 16.7419C85.2538 10.5831 82.9394 4.96425 79.1294 0.717659C89.5692 3.33162 97.3006 12.7725 97.3006 24.027Z" fill="#DD1212"/>
<path d="M52.2024 68.015C50.8998 68.015 49.7807 67.0881 49.5388 65.8063L42.9201 30.6488L35.8777 47.3852C35.4676 48.3602 34.5287 49.0066 33.472 49.0427C32.4138 49.0787 31.4341 48.4963 30.959 47.5519L29.0765 43.8099H2.7101C1.21366 43.8099 0 42.5963 0 41.0999C0 39.6026 1.21366 38.3898 2.7101 38.3898H30.7467C31.7657 38.3898 32.6982 38.9609 33.1604 39.8678L41.4189 20.2434C41.8827 19.1403 43.0155 18.4722 44.2035 18.5996C45.3931 18.7261 46.3584 19.617 46.5803 20.793L52.0374 49.7837L54.2957 36.2188C54.5127 34.9114 55.6431 33.9533 56.9681 33.9533H65.813C66.7294 33.9533 67.5842 34.4163 68.0841 35.1838L72.2369 41.5581L74.0282 39.3791C74.5433 38.7527 75.3115 38.3898 76.1222 38.3898H102.291C103.787 38.3898 105 39.6034 105 41.0999C105 42.5963 103.787 43.8099 102.291 43.8099H77.4032L74.0786 47.8547C73.5307 48.5212 72.6967 48.8873 71.8356 48.84C70.9728 48.7927 70.1853 48.3369 69.7143 47.6135L64.3454 39.3735H59.2648L54.8756 65.7495C54.6601 67.0456 53.545 68.0005 52.2312 68.0142C52.2216 68.0142 52.2112 68.015 52.2024 68.015Z" fill="#60DAFF"/>
</svg>
